<svg width="256" height="256" viewBox="0 0 256 256" fill="none" xmlns="http://www.w3.org/2000/svg">
<path d="M5.44701 224.328C-12.3777 213.201 13.8438 164.472 123.991 160.146C156.968 158.851 188.085 87.1592 203.028 83.0943C237.995 73.5816 242.784 131.319 234.745 175.953C227.819 214.404 185.491 213.257 123.991 214.403C90.4943 215.028 73.7637 219.942 59.6976 224.328C45.6314 228.714 14.7059 230.108 5.44701 224.328Z" fill="#3D00CC"/>
<path d="M180.448 74.8223C177.917 60.8593 174.729 54.197 171.942 48.613C151.45 7.55354 187.813 34.3423 194.8 68.8293C195.688 73.2104 207.643 106.619 194.8 102.564C187.516 100.265 183.548 91.9249 180.448 74.8223Z" fill="#8800CC"/>
<path d="M23.5056 169.579C16.2158 161.947 13.6043 157.114 11.4658 152.994C-4.25917 122.702 -4.06159 156.293 13.6208 175.587C15.8672 178.038 30.7269 199.848 33.909 190.35C35.7136 184.964 32.4345 178.927 23.5056 169.579Z" fill="#8800CC"/>
<path d="M136.908 143.78C129.618 136.147 127.007 131.314 124.868 127.195C109.143 96.9022 109.341 130.494 127.023 149.788C129.27 152.239 144.129 174.049 147.311 164.551C149.116 159.164 145.837 153.128 136.908 143.78Z" fill="#8800CC"/>
<path d="M80.2069 156.679C72.9171 149.047 70.3056 144.214 68.1671 140.094C52.4421 109.802 52.6397 143.393 70.3221 162.687C72.5685 165.139 87.4282 186.949 90.6103 177.451C92.4149 172.064 89.1358 166.028 80.2069 156.679Z" fill="#8800CC"/>
<path d="M50.7048 162.519C40.9259 152.28 37.4227 145.797 34.5539 140.271C13.4596 99.635 13.7247 144.697 37.4448 170.579C40.4582 173.867 60.3919 203.124 64.6604 190.383C67.0812 183.157 62.6825 175.059 50.7048 162.519Z" fill="#8800CC"/>
<path d="M110.235 156.004C100.456 145.766 96.9525 139.283 94.0837 133.756C72.9894 93.1204 73.2544 138.182 96.9746 164.064C99.988 167.352 119.922 196.609 124.19 183.868C126.611 176.642 122.212 168.545 110.235 156.004Z" fill="#8800CC"/>
<path d="M241.304 74.8223C243.835 60.8593 247.023 54.197 249.81 48.613C270.302 7.55354 233.939 34.3423 226.952 68.8293C226.064 73.2104 214.109 106.619 226.952 102.564C234.236 100.265 238.204 91.9249 241.304 74.8223Z" fill="#8800CC"/>
</svg>
