<svg width="256" height="256" viewBox="0 0 256 256" fill="none" xmlns="http://www.w3.org/2000/svg">
<circle cx="128.329" cy="128" r="128" fill="#111111"/>
<path d="M36.4141 200.246C23.0455 191.901 42.7116 155.354 125.322 152.11C150.054 151.138 173.393 97.3694 184.599 94.3207C210.825 87.1862 214.417 130.489 208.387 163.965C203.193 192.803 171.447 191.943 125.322 192.803C100.2 193.271 87.6516 196.956 77.102 200.246C66.5524 203.536 43.3582 204.581 36.4141 200.246Z" fill="#3D00CC"/>
<path d="M167.665 88.1167C165.767 77.6445 163.376 72.6477 161.286 68.4597C145.916 37.6652 173.188 57.7567 178.429 83.622C179.095 86.9078 188.061 111.964 178.429 108.923C172.966 107.199 169.99 100.944 167.665 88.1167Z" fill="#8800CC"/>
<path d="M49.9581 159.184C44.4907 153.46 42.5321 149.835 40.9282 146.746C29.1345 124.026 29.2827 149.22 42.5445 163.691C44.2292 165.529 55.3741 181.886 57.7606 174.763C59.114 170.723 56.6547 166.196 49.9581 159.184Z" fill="#8800CC"/>
<path d="M135.01 139.835C129.542 134.11 127.584 130.486 125.98 127.396C114.186 104.677 114.334 129.87 127.596 144.341C129.281 146.179 140.426 162.537 142.812 155.413C144.166 151.373 141.707 146.846 135.01 139.835Z" fill="#8800CC"/>
<path d="M92.484 149.509C87.0166 143.785 85.058 140.161 83.4541 137.071C71.6604 114.351 71.8085 139.545 85.0704 154.016C86.7551 155.854 97.9 172.212 100.286 165.088C101.64 161.048 99.1806 156.521 92.484 149.509Z" fill="#8800CC"/>
<path d="M70.3575 153.889C63.0233 146.21 60.3959 141.348 58.2443 137.203C42.4236 106.726 42.6224 140.522 60.4125 159.934C62.6726 162.4 77.6228 184.343 80.8242 174.787C82.6398 169.368 79.3408 163.295 70.3575 153.889Z" fill="#8800CC"/>
<path d="M115.005 149.003C107.671 141.325 105.043 136.462 102.892 132.317C87.0711 101.841 87.2699 135.637 105.06 155.048C107.32 157.514 122.27 179.457 125.472 169.901C127.287 164.482 123.988 158.409 115.005 149.003Z" fill="#8800CC"/>
<path d="M213.307 88.1167C215.205 77.6445 217.596 72.6477 219.686 68.4597C235.056 37.6652 207.783 57.7567 202.543 83.622C201.877 86.9078 192.91 111.964 202.543 108.923C208.006 107.199 210.982 100.944 213.307 88.1167Z" fill="#8800CC"/>
</svg>
